<svg width="40" height="40" viewBox="0 0 40 40" fill="none" xmlns="http://www.w3.org/2000/svg">
<g clip-path="url(#clip0_13814_2315)">
<path d="M12.9287 23.7815C9.98052 22.3074 9.98052 18.0993 12.9287 16.6252L21.5723 12.304C22.0154 12.0824 22.5368 12.4043 22.5371 12.8997L22.5371 27.5071C22.5368 28.0024 22.0154 28.3244 21.5723 28.1028L12.9287 23.7815Z" stroke="#898989" stroke-width="2"/>
<path d="M26.8711 25.2034C27.6519 24.9904 28.3739 24.5179 28.9492 23.8296C29.7529 22.8678 30.2044 21.5635 30.2044 20.2034C30.2044 18.8433 29.7529 17.5389 28.9492 16.5772C28.3739 15.8888 27.6519 15.4163 26.8711 15.2034" stroke="#898989" stroke-width="1.66667" stroke-linecap="round"/>
<path d="M26.0365 19.6972C26.0365 19.5165 26.1884 19.3642 26.3554 19.4334C26.4565 19.4753 26.5483 19.5366 26.6257 19.614C26.7031 19.6914 26.7645 19.7833 26.8064 19.8844C26.8482 19.9855 26.8698 20.0939 26.8698 20.2033C26.8698 20.3127 26.8482 20.4211 26.8064 20.5222C26.7645 20.6233 26.7031 20.7152 26.6257 20.7925C26.5483 20.8699 26.4565 20.9313 26.3554 20.9732C26.1884 21.0424 26.0365 20.8901 26.0365 20.7094L26.0365 20.2033L26.0365 19.6972Z" fill="#898989" stroke="#898989" stroke-width="0.833333"/>
</g>
<defs>
<clipPath id="clip0_13814_2315">
<rect width="23.3333" height="23.3333" fill="white" transform="translate(8.53711 8.53687)"/>
</clipPath>
</defs>
</svg>
