<svg width="27" height="14" viewBox="0 0 27 14" fill="none" xmlns="http://www.w3.org/2000/svg">
<g opacity="0.3">
<path d="M0.665982 1.77772C0 2.78661 0 4.19108 0 7C0 9.80892 0 11.2134 0.665982 12.2223C0.954292 12.659 1.32477 13.034 1.75625 13.3259C2.75297 14 4.14047 14 6.91548 14H17.7827C20.5577 14 21.9452 14 22.9419 13.3259C23.3734 13.034 23.7438 12.659 24.0322 12.2223C24.6981 11.2134 24.6981 9.80892 24.6981 7C24.6981 4.19108 24.6981 2.78661 24.0322 1.77772C23.7438 1.34096 23.3734 0.965956 22.9419 0.674122C21.9452 0 20.5577 0 17.7827 0H6.91548C4.14047 0 2.75297 0 1.75625 0.674122C1.32477 0.965956 0.954292 1.34096 0.665982 1.77772Z" fill="#6E6E6E"/>
<path d="M27 6.75C27 7.62313 26.4822 8.41122 25.6861 8.75V4.75C26.4822 5.08878 27 5.87687 27 6.75Z" fill="#6E6E6E"/>
</g>
<path d="M0 7C0 4.19108 0 2.78661 0.674122 1.77772C0.965956 1.34096 1.34096 0.965956 1.77772 0.674122C2.78661 0 4.19108 0 7 0H18V14H7C4.19108 14 2.78661 14 1.77772 13.3259C1.34096 13.034 0.965956 12.659 0.674122 12.2223C0 11.2134 0 9.80892 0 7Z" fill="#6E6E6E"/>
<path d="M7.0542 11L10.3574 4.62988V4.53857H6.44727V3.24414H11.9902V4.55469L8.75146 11H7.0542ZM15.7549 11.1719C15.1318 11.1719 14.584 11.077 14.1113 10.8872C13.6387 10.6938 13.2699 10.4271 13.0049 10.0869C12.7399 9.74316 12.6074 9.34749 12.6074 8.8999V8.88916C12.6074 8.55257 12.6844 8.24821 12.8384 7.97607C12.9959 7.70394 13.2108 7.47835 13.4829 7.29932C13.755 7.1167 14.0666 6.99137 14.4175 6.92334V6.89111C13.9627 6.78011 13.5939 6.57243 13.311 6.26807C13.0317 5.96012 12.8921 5.59489 12.8921 5.17236V5.16162C12.8921 4.76058 13.0138 4.4043 13.2573 4.09277C13.5008 3.77767 13.8374 3.5306 14.2671 3.35156C14.6968 3.16895 15.1927 3.07764 15.7549 3.07764C16.3171 3.07764 16.813 3.16895 17.2427 3.35156C17.6724 3.5306 18.009 3.77767 18.2524 4.09277C18.4959 4.4043 18.6177 4.76058 18.6177 5.16162V5.17236C18.6177 5.59489 18.4762 5.96012 18.1934 6.26807C17.9105 6.57243 17.5435 6.78011 17.0923 6.89111V6.92334C17.4432 6.99137 17.7547 7.1167 18.0269 7.29932C18.299 7.47835 18.512 7.70394 18.666 7.97607C18.8236 8.24821 18.9023 8.55257 18.9023 8.88916V8.8999C18.9023 9.34749 18.7699 9.74316 18.5049 10.0869C18.2399 10.4271 17.8693 10.6938 17.3931 10.8872C16.9204 11.077 16.3743 11.1719 15.7549 11.1719ZM15.7549 9.99023C16.0378 9.99023 16.2884 9.9401 16.5068 9.83984C16.7253 9.736 16.8953 9.59456 17.0171 9.41553C17.1424 9.23291 17.2051 9.02523 17.2051 8.79248V8.78174C17.2051 8.54899 17.1442 8.3431 17.0225 8.16406C16.9007 7.98145 16.7306 7.83822 16.5122 7.73438C16.2938 7.63053 16.0413 7.57861 15.7549 7.57861C15.4684 7.57861 15.216 7.63053 14.9976 7.73438C14.7791 7.83822 14.6073 7.98145 14.4819 8.16406C14.3602 8.3431 14.2993 8.54899 14.2993 8.78174V8.79248C14.2993 9.02523 14.362 9.23291 14.4873 9.41553C14.6126 9.59456 14.7845 9.736 15.0029 9.83984C15.2214 9.9401 15.472 9.99023 15.7549 9.99023ZM15.7549 6.40234C16.002 6.40234 16.2204 6.35758 16.4102 6.26807C16.5999 6.17497 16.7467 6.04785 16.8506 5.88672C16.958 5.72559 17.0117 5.53939 17.0117 5.32812V5.31738C17.0117 5.10612 16.958 4.91992 16.8506 4.75879C16.7432 4.59766 16.5946 4.47233 16.4048 4.38281C16.2186 4.29329 16.002 4.24854 15.7549 4.24854C15.5078 4.24854 15.2894 4.29329 15.0996 4.38281C14.9098 4.47233 14.7612 4.59766 14.6538 4.75879C14.5464 4.91992 14.4927 5.10612 14.4927 5.31738V5.32812C14.4927 5.53939 14.5464 5.72559 14.6538 5.88672C14.7612 6.04785 14.9098 6.17497 15.0996 6.26807C15.2894 6.35758 15.5078 6.40234 15.7549 6.40234Z" fill="white"/>
</svg>
