<svg width="41" height="41" viewBox="0 0 41 41" fill="none" xmlns="http://www.w3.org/2000/svg">
<path d="M22.0683 13.5678L20.2045 15.3738L18.3406 13.5678C16.3863 11.6741 13.2511 11.7787 11.4273 13.7984C9.65749 15.7581 9.41384 18.6936 11.0164 20.7923C11.2133 21.0502 11.407 21.2972 11.5913 21.5232C12.7577 22.9542 15.3027 25.4531 16.5778 26.7942C17.5199 27.785 18.3668 28.6113 19.0047 29.2132C19.6784 29.8488 20.7184 29.835 21.3934 29.2007C22.5698 28.0954 24.3737 26.3736 25.6444 25.0372C26.9195 23.6961 27.6512 22.9542 28.8177 21.5232C29.0019 21.2972 29.1956 21.0502 29.3925 20.7923C30.9951 18.6936 30.7514 15.7581 28.9817 13.7984C27.1578 11.7787 24.0227 11.6741 22.0683 13.5678Z" stroke="#898989" stroke-width="2.02054" stroke-linecap="round" stroke-linejoin="round"/>
</svg>
