<svg width="41" height="41" viewBox="0 0 41 41" fill="none" xmlns="http://www.w3.org/2000/svg">
<path d="M23.573 13.4704C23.573 15.3302 22.0653 16.8379 20.2055 16.8379C18.3456 16.8379 16.8379 15.3302 16.8379 13.4704C16.8379 11.6105 18.3456 10.1028 20.2055 10.1028C22.0653 10.1028 23.573 11.6105 23.573 13.4704Z" stroke="#898989" stroke-width="2.02054"/>
<path d="M16.8385 20.2056L13.2867 22.5734C12.3498 23.198 11.7871 24.2494 11.7871 25.3754V27.053C11.7871 27.9209 12.4907 28.6245 13.3586 28.6245H20.206" stroke="#898989" stroke-width="2.02054" stroke-linecap="round" stroke-linejoin="round"/>
<path d="M27.7837 13.4705V21.0475M27.7837 21.0475V24.8105C27.7837 25.5596 27.2502 26.213 26.5014 26.1894C25.2632 26.1504 23.5742 25.7063 23.5742 23.5732C23.5742 20.2056 27.7837 21.0475 27.7837 21.0475Z" stroke="#898989" stroke-width="1.68378" stroke-linecap="round" stroke-linejoin="round"/>
</svg>
