<svg width="41" height="41" viewBox="0 0 41 41" fill="none" xmlns="http://www.w3.org/2000/svg">
<path d="M23.573 13.4711C23.573 15.3309 22.0653 16.8387 20.2054 16.8387C18.3455 16.8387 16.8378 15.3309 16.8378 13.4711C16.8378 11.6112 18.3455 10.1035 20.2054 10.1035C22.0653 10.1035 23.573 11.6112 23.573 13.4711Z" stroke="#898989" stroke-width="2.02054"/>
<path d="M13.286 22.5739L14.0358 22.074C15.8628 20.856 18.0095 20.2061 20.2054 20.2061C22.4012 20.2061 24.5479 20.856 26.3749 22.074L27.1247 22.5739C28.0616 23.1985 28.6243 24.2499 28.6243 25.3759V27.0534C28.6243 27.9214 27.9207 28.625 27.0527 28.625H20.2054H13.358C12.49 28.625 11.7864 27.9214 11.7864 27.0534V25.3759C11.7864 24.2499 12.3492 23.1985 13.286 22.5739Z" stroke="#898989" stroke-width="2.02054" stroke-linecap="round" stroke-linejoin="round"/>
</svg>
